<svg xmlns="http://www.w3.org/2000/svg" viewBox="0 0 900 450" role="img" aria-label="FISHING VESSEL AND GEAR with vessel shapes and directions of travel"><defs><linearGradient id="water" x2="0" y2="1"><stop stop-color="#19546a"/><stop offset=".5" stop-color="#12617a"/><stop offset="1" stop-color="#16485d"/></linearGradient><linearGradient id="land" x2="0" y2="1"><stop stop-color="#718d70"/><stop offset="1" stop-color="#3d635c"/></linearGradient><filter id="boatShadow" x="-50%" y="-50%" width="200%" height="200%"><feDropShadow dx="2" dy="4" stdDeviation="4" flood-opacity=".42"/></filter><pattern id="ripples" width="110" height="75" patternUnits="userSpaceOnUse"><path d="M10 25q13 -6 28 0 M66 55q10 -5 24 0" stroke="#afdce0" stroke-opacity=".22" stroke-width="2" fill="none"/></pattern></defs><rect x="0" y="0" width="900" height="450" rx="22" fill="url(#water)" stroke="none" stroke-width="1"/><rect x="0" y="0" width="900" height="450" rx="22" fill="url(#ripples)" stroke="none" stroke-width="1"/><path d="M0 0H900V62Q735 86 575 63Q300 47 0 80Z" fill="url(#land)" stroke="none" stroke-width="1" /><path d="M0 450H900V390Q700 375 495 399Q205 424 0 382Z" fill="url(#land)" stroke="none" stroke-width="1" /><path d="M0 79Q300 46 575 64Q735 86 900 62" fill="none" stroke="#d3c79b" stroke-width="9" /><path d="M0 382Q205 424 495 399Q700 375 900 390" fill="none" stroke="#d3c79b" stroke-width="9" /><circle cx="56" cy="29" r="11" fill="#274c44"/><circle cx="78" cy="416" r="12" fill="#274c44"/><circle cx="190" cy="29" r="11" fill="#274c44"/><circle cx="212" cy="416" r="12" fill="#274c44"/><circle cx="733" cy="29" r="11" fill="#274c44"/><circle cx="755" cy="416" r="12" fill="#274c44"/><circle cx="812" cy="29" r="11" fill="#274c44"/><circle cx="834" cy="416" r="12" fill="#274c44"/><rect x="20" y="14" width="860" height="40" rx="10" fill="#082633" stroke="none" stroke-width="1"/><text x="39" y="42" fill="#f3f6e7" font-size="23" font-weight="700" text-anchor="start" font-family="Arial,Helvetica,sans-serif">FISHING VESSEL AND GEAR</text><rect x="26" y="405" width="848" height="31" rx="8" fill="#082a39" stroke="none" stroke-width="1"/><text x="44" y="426" fill="#c7e6ea" font-size="15" font-weight="600" text-anchor="start" font-family="Arial,Helvetica,sans-serif">Marked fishing activity • gear extends beyond the hull</text><path d="M666 352 L815 352" fill="none" stroke="#8ce5f2" stroke-width="5" stroke-linecap="round" /><path d="M815 352 l-17 -10 v20 Z" fill="#8ce5f2" transform="rotate(0.0 815 352)"/><text x="740.5" y="339" fill="#8ce5f2" font-size="15" font-weight="700" text-anchor="middle" font-family="Arial,Helvetica,sans-serif">CURRENT →</text><g transform="translate(512 226) rotate(0) scale(1.298)" filter="url(#boatShadow)"><path d="M-84 -23 Q-132 -36 -168 -25 M-85 23 Q-132 36 -168 25" fill="none" stroke="#d9f6f5" stroke-width="4" opacity=".63"/><path d="M-86 -30 Q-80 -36 65 -32 L89 -16 L89 16 L65 32 Q-80 36 -86 30 Z" fill="#f1ece4" stroke="#112e3b" stroke-width="3" /><rect x="-58" y="-23" width="86" height="46" rx="5" fill="#718d97" stroke="#ed9966" stroke-width="2"/><rect x="41" y="-19" width="27" height="38" rx="5" fill="#fbf1d7" stroke="#294657" stroke-width="2"/><path d="M-51 -8 L17 -8" fill="none" stroke="#b6cbd1" stroke-width="2" stroke-linecap="round" /><path d="M-51 8 L17 8" fill="none" stroke="#b6cbd1" stroke-width="2" stroke-linecap="round" /></g><rect x="452" y="272.728" width="120" height="23" rx="6" fill="#0c2c3b" stroke="none" stroke-width="1"/><text x="512" y="289.728" fill="#f6faf1" font-size="14" font-weight="700" text-anchor="middle" font-family="Arial,Helvetica,sans-serif">FISHING</text><g transform="translate(214 278) rotate(0) scale(0.78)" filter="url(#boatShadow)"><path d="M-84 -23 Q-132 -36 -168 -25 M-85 23 Q-132 36 -168 25" fill="none" stroke="#d9f6f5" stroke-width="4" opacity=".63"/><path d="M-78 -23 Q-63 -36 24 -32 Q55 -25 81 0 Q55 25 24 32 Q-63 36 -78 23 Z" fill="#e8f4e8" stroke="#153543" stroke-width="3" /><path d="M-42 -20 Q-13 -24 32 -17 Q44 0 32 17 Q-13 24 -42 20 Z" fill="#1a9b9c" stroke="#326170" stroke-width="2" /><rect x="-17" y="-13" width="38" height="26" rx="6" fill="#f6f0d4" stroke="#2a6171" stroke-width="2"/><rect x="-66" y="-12" width="18" height="24" rx="4" fill="#81a1a5" stroke="none" stroke-width="1"/><path d="M47 -11 L65 0 L47 11 Z" fill="#fcf9e9" stroke="none" stroke-width="1" /></g><rect x="154" y="306.08" width="120" height="23" rx="6" fill="#0c2c3b" stroke="none" stroke-width="1"/><text x="214" y="323.08" fill="#f6faf1" font-size="14" font-weight="700" text-anchor="middle" font-family="Arial,Helvetica,sans-serif">YOU</text><path d="M407 208Q361 209 311 177L282 211Q355 264 407 245Z" fill="#6b9c9d" stroke="#e6e5c9" stroke-width="2" opacity=".67"/><path d="M508 128 L634 128" fill="none" stroke="#ffd6a8" stroke-width="5" stroke-linecap="round" /><path d="M634 128 l-17 -10 v20 Z" fill="#ffd6a8" transform="rotate(0.0 634 128)"/><text x="571.0" y="112" fill="#ffd6a8" font-size="15" font-weight="700" text-anchor="middle" font-family="Arial,Helvetica,sans-serif">FISHING TRACK</text><path d="M213 163 L341 163" fill="none" stroke="#a1f8c8" stroke-width="5" stroke-linecap="round" /><path d="M341 163 l-17 -10 v20 Z" fill="#a1f8c8" transform="rotate(0.0 341 163)"/><text x="277.0" y="147" fill="#a1f8c8" font-size="15" font-weight="700" text-anchor="middle" font-family="Arial,Helvetica,sans-serif">YOUR TRACK</text><text x="290" y="341" fill="#e3ebc0" font-size="15" font-weight="700" text-anchor="start" font-family="Arial,Helvetica,sans-serif">GEAR ASTERN</text></svg>
