<svg xmlns="http://www.w3.org/2000/svg" viewBox="0 0 960 540" role="img" aria-labelledby="title desc" font-family="Arial, Helvetica, sans-serif">
<title id="title">Plan the whole tidal window</title><desc id="desc">Departure, the shallow point and arrival each need their own check. Fictional schematic for learning, not for navigation.</desc>
<defs><linearGradient id="sea" x2="0" y2="1"><stop stop-color="#97deed"/><stop offset="1" stop-color="#16849e"/></linearGradient></defs>
<rect width="960" height="540" fill="#edf5f5"/><rect width="960" height="122" fill="#092e42"/>
<text x="38" y="39" fill="#8ee1dc" font-size="14" font-weight="700">PROJECT WATCH  /  TIDAL NAVIGATION</text>
<text x="38" y="86" fill="#fff" font-size="31" font-weight="700">Plan the whole tidal window</text>
<text x="38" y="151" fill="#456573" font-size="17" font-weight="500">Departure, the shallow point and arrival each need their own check.</text>
<rect x="38" y="180" width="884" height="275" rx="16" fill="#ffffff" stroke="#cee1e5"/><path d="M101 377L864 377" fill="none" stroke="#739aa7" stroke-width="4"/><rect x="340" y="212" width="277" height="42" rx="20" fill="#b9e5ce"/><text x="479" y="240" fill="#245747" font-size="17" font-weight="800" text-anchor="middle">DEPTH WINDOW</text><path d="M110 320C257 318 346 268 483 269S703 312 847 319" fill="none" stroke="#087e90" stroke-width="6"/><path d="M164 285L164 387" fill="none" stroke="#739aa7" stroke-width="2" stroke-dasharray="5 5"/><path d="M478 285L478 387" fill="none" stroke="#739aa7" stroke-width="2" stroke-dasharray="5 5"/><path d="M797 285L797 387" fill="none" stroke="#739aa7" stroke-width="2" stroke-dasharray="5 5"/><circle cx="164" cy="317" r="7" fill="#087e90" stroke="#fff" stroke-width="2"/><circle cx="478" cy="269" r="7" fill="#087e90" stroke="#fff" stroke-width="2"/><circle cx="797" cy="316" r="7" fill="#087e90" stroke="#fff" stroke-width="2"/><text x="164" y="415" fill="#15384a" font-size="17" font-weight="800" text-anchor="middle">DEPART</text><text x="478" y="415" fill="#15384a" font-size="17" font-weight="800" text-anchor="middle">SHALLOW POINT</text><text x="797" y="415" fill="#15384a" font-size="17" font-weight="800" text-anchor="middle">ARRIVE</text><text x="109" y="241" fill="#456573" font-size="17" font-weight="700">Check height</text><text x="673" y="241" fill="#456573" font-size="17" font-weight="700">Check stream + weather</text>
<path d="M38 493H922" stroke="#c9dcdf"/>
<text x="38" y="517" fill="#496a76" font-size="13" font-weight="700">SCHEMATIC • FICTIONAL EXAMPLES • NOT FOR NAVIGATION</text>
<text x="922" y="517" fill="#6a8c96" font-size="12" font-weight="700" text-anchor="end">PROJECT WATCH</text>
</svg>