<svg xmlns="http://www.w3.org/2000/svg" viewBox="0 0 900 450" role="img" aria-label="REPORT ENTRY AND EXIT with vessel shapes and directions of travel"><defs><linearGradient id="water" x2="0" y2="1"><stop stop-color="#19546a"/><stop offset=".5" stop-color="#12617a"/><stop offset="1" stop-color="#16485d"/></linearGradient><linearGradient id="land" x2="0" y2="1"><stop stop-color="#718d70"/><stop offset="1" stop-color="#3d635c"/></linearGradient><filter id="boatShadow" x="-50%" y="-50%" width="200%" height="200%"><feDropShadow dx="2" dy="4" stdDeviation="4" flood-opacity=".42"/></filter><pattern id="ripples" width="110" height="75" patternUnits="userSpaceOnUse"><path d="M10 25q13 -6 28 0 M66 55q10 -5 24 0" stroke="#afdce0" stroke-opacity=".22" stroke-width="2" fill="none"/></pattern></defs><rect x="0" y="0" width="900" height="450" rx="22" fill="url(#water)" stroke="none" stroke-width="1"/><rect x="0" y="0" width="900" height="450" rx="22" fill="url(#ripples)" stroke="none" stroke-width="1"/><rect x="20" y="14" width="860" height="40" rx="10" fill="#082633" stroke="none" stroke-width="1"/><text x="39" y="42" fill="#f3f6e7" font-size="23" font-weight="700" text-anchor="start" font-family="Arial,Helvetica,sans-serif">REPORT ENTRY AND EXIT</text><rect x="26" y="405" width="848" height="31" rx="8" fill="#082a39" stroke="none" stroke-width="1"/><text x="44" y="426" fill="#c7e6ea" font-size="15" font-weight="600" text-anchor="start" font-family="Arial,Helvetica,sans-serif">Update changes during the designated sector</text><path d="M49 129 L849 129" fill="none" stroke="#c1e5e4" stroke-width="2" stroke-linecap="round" stroke-dasharray="15 11"/><path d="M49 337 L849 337" fill="none" stroke="#c1e5e4" stroke-width="2" stroke-linecap="round" stroke-dasharray="15 11"/><g transform="translate(238 233) rotate(0) scale(0.8495999999999999)" filter="url(#boatShadow)"><path d="M-84 -23 Q-132 -36 -168 -25 M-85 23 Q-132 36 -168 25" fill="none" stroke="#d9f6f5" stroke-width="4" opacity=".63"/><path d="M-86 -30 Q-80 -36 65 -32 L89 -16 L89 16 L65 32 Q-80 36 -86 30 Z" fill="#e8f4e8" stroke="#112e3b" stroke-width="3" /><rect x="-58" y="-23" width="86" height="46" rx="5" fill="#718d97" stroke="#1a9b9c" stroke-width="2"/><rect x="41" y="-19" width="27" height="38" rx="5" fill="#fbf1d7" stroke="#294657" stroke-width="2"/><path d="M-51 -8 L17 -8" fill="none" stroke="#b6cbd1" stroke-width="2" stroke-linecap="round" /><path d="M-51 8 L17 8" fill="none" stroke="#b6cbd1" stroke-width="2" stroke-linecap="round" /></g><path d="M469 122 L469 337" fill="none" stroke="#f3d69d" stroke-width="3" stroke-linecap="round" stroke-dasharray="10 12"/><path d="M676 122 L676 337" fill="none" stroke="#f3d69d" stroke-width="3" stroke-linecap="round" stroke-dasharray="10 12"/><text x="466" y="104" fill="#e6eecf" font-size="15" font-weight="700" text-anchor="middle" font-family="Arial,Helvetica,sans-serif">ENTRY</text><text x="675" y="104" fill="#e6eecf" font-size="15" font-weight="700" text-anchor="middle" font-family="Arial,Helvetica,sans-serif">EXIT</text><path d="M290 168 L638 168" fill="none" stroke="#aff1d2" stroke-width="5" stroke-linecap="round" /><path d="M638 168 l-17 -10 v20 Z" fill="#aff1d2" transform="rotate(0.0 638 168)"/></svg>
